<svg width="196" height="196" viewBox="0 0 196 196" fill="none" xmlns="http://www.w3.org/2000/svg">
<rect width="196" height="196" fill="white"/>
<rect width="167.611" height="167.611" transform="translate(13.9678 13.9676)" fill="white"/>
<path d="M34.4017 72.3212L28.2585 82.9909L97.45 161.882C97.7733 162.205 98.0966 162.205 98.0966 161.882L167.288 82.9909L149.829 52.9217H64.1476" stroke="#283E78" stroke-width="5.58704" stroke-miterlimit="10" stroke-linecap="round"/>
<path d="M27.9353 80.1973C26.3925 80.1973 25.1418 81.448 25.1418 82.9908C25.1418 84.5337 26.3925 85.7844 27.9353 85.7844V80.1973ZM27.9353 85.7844H167.611V80.1973H27.9353V85.7844Z" fill="#283E78"/>
<path d="M68.3211 88.3323C67.6998 86.9201 66.0513 86.279 64.6391 86.9004C63.2269 87.5217 62.5859 89.1702 63.2072 90.5824L68.3211 88.3323ZM100.33 161.08L68.3211 88.3323L63.2072 90.5824L95.2163 163.33L100.33 161.08Z" fill="#283E78"/>
<path d="M97.7734 160.589L128.813 89.4573" stroke="#283E78" stroke-width="5.58704" stroke-miterlimit="10" stroke-linecap="round"/>
<path d="M100.567 89.4573C100.567 87.9145 99.3163 86.6638 97.7734 86.6638C96.2306 86.6638 94.9799 87.9145 94.9799 89.4573H100.567ZM94.9799 89.4573V160.589H100.567V89.4573H94.9799Z" fill="#283E78"/>
<path d="M63.8242 76.8477L61.5894 78.5238L63.8534 81.5425L66.0797 78.4959L63.8242 76.8477ZM61.2092 68.7051C60.2835 67.4709 58.5325 67.2207 57.2983 68.1464C56.064 69.0721 55.8139 70.8231 56.7395 72.0573L61.2092 68.7051ZM79.9983 49.9802L61.5688 75.1995L66.0797 78.4959L84.5092 53.2766L79.9983 49.9802ZM66.059 75.1716L61.2092 68.7051L56.7395 72.0573L61.5894 78.5238L66.059 75.1716Z" fill="#283E78"/>
<path d="M97.1267 76.8477L94.9163 78.5558L97.1891 81.4971L99.3822 78.4959L97.1267 76.8477ZM82.8477 53.8002C81.9043 52.5794 80.1499 52.3545 78.9291 53.2978C77.7083 54.2412 77.4834 55.9956 78.4267 57.2164L82.8477 53.8002ZM113.301 49.9802L94.8713 75.1995L99.3822 78.4959L117.812 53.2766L113.301 49.9802ZM99.3372 75.1396L82.8477 53.8002L78.4267 57.2164L94.9163 78.5558L99.3372 75.1396Z" fill="#283E78"/>
<path d="M130.429 76.8477L128.219 78.5558L130.512 81.523L132.698 78.4769L130.429 76.8477ZM116.15 53.8002C115.207 52.5794 113.452 52.3545 112.232 53.2978C111.011 54.2412 110.786 55.9956 111.729 57.2164L116.15 53.8002ZM146.266 49.9992L128.16 75.2185L132.698 78.4769L150.805 53.2576L146.266 49.9992ZM132.64 75.1396L116.15 53.8002L111.729 57.2164L128.219 78.5558L132.64 75.1396Z" fill="#283E78"/>
<path d="M45.0715 33.5223V42.5754" stroke="#283E78" stroke-width="5.58704" stroke-miterlimit="10" stroke-linecap="round"/>
<path d="M61.8843 43.222L54.1245 47.7485" stroke="#283E78" stroke-width="5.58704" stroke-miterlimit="10" stroke-linecap="round"/>
<path d="M61.8843 62.6214L54.1245 58.0949" stroke="#283E78" stroke-width="5.58704" stroke-miterlimit="10" stroke-linecap="round"/>
<path d="M45.0715 72.3211V63.2681" stroke="#283E78" stroke-width="5.58704" stroke-miterlimit="10" stroke-linecap="round"/>
<path d="M28.2585 62.6214L36.0183 58.0949" stroke="#283E78" stroke-width="5.58704" stroke-miterlimit="10" stroke-linecap="round"/>
<path d="M28.2585 43.222L36.0183 47.7485" stroke="#283E78" stroke-width="5.58704" stroke-miterlimit="10" stroke-linecap="round"/>
</svg>
