<svg width="49" height="49" viewBox="0 0 49 49" fill="none" xmlns="http://www.w3.org/2000/svg">
<path d="M24.8362 48.5841C38.1816 48.5841 49.0001 37.7655 49.0001 24.4202C49.0001 11.0749 38.1816 0.256348 24.8362 0.256348C11.4909 0.256348 0.672363 11.0749 0.672363 24.4202C0.672363 37.7655 11.4909 48.5841 24.8362 48.5841Z" fill="url(#paint0_linear_804_1283)"/>
<path d="M35.208 9.92188H14.4643C12.1223 9.92188 10.3379 11.7062 10.3379 14.0482V34.792C10.3379 37.1341 12.1223 38.9185 14.4643 38.9185H35.208C37.5501 38.9185 39.3345 37.1341 39.3345 34.792V14.0482C39.3345 11.7062 37.5501 9.92188 35.208 9.92188ZM24.8362 33.1192C29.6318 33.1192 33.5352 29.3273 33.5352 24.7547C33.5352 23.9741 33.4237 23.0819 33.2006 22.4126H35.6541V34.2344C35.6541 34.792 35.208 35.3496 34.5389 35.3496H15.1335C14.5759 35.3496 14.0183 34.9035 14.0183 34.2344V22.3011H16.5833C16.3602 23.0818 16.2487 23.8624 16.2487 24.6432C16.1372 29.3273 20.0406 33.1192 24.8362 33.1192ZM24.8362 29.7734C21.7136 29.7734 19.2599 27.3199 19.2599 24.3085C19.2599 21.2974 21.7136 18.8438 24.8362 18.8438C27.9588 18.8438 30.4126 21.2974 30.4126 24.3085C30.4126 27.4313 27.9588 29.7734 24.8362 29.7734ZM35.5426 17.8401C35.5426 18.5092 34.985 19.0668 34.3159 19.0668H31.1931C30.524 19.0668 29.9664 18.5092 29.9664 17.8401V14.829C29.9664 14.1597 30.524 13.6021 31.1931 13.6021H34.3159C34.985 13.6021 35.5426 14.1597 35.5426 14.829V17.8401Z" fill="white"/>
<defs>
<linearGradient id="paint0_linear_804_1283" x1="10.942" y1="43.1472" x2="42.9591" y2="9.92189" gradientUnits="userSpaceOnUse">
<stop stop-color="#EEA054"/>
<stop offset="0.502762" stop-color="#D64763"/>
<stop offset="1" stop-color="#B62A99"/>
</linearGradient>
</defs>
</svg>
