<svg width="270" height="150" viewBox="0 0 270 150" fill="none" xmlns="http://www.w3.org/2000/svg">
<path d="M22.2813 120.436C20.469 120.436 18.9107 120.029 17.6065 119.216C16.3023 118.403 15.3115 117.26 14.634 115.786C13.9565 114.313 13.6178 112.594 13.6178 110.629C13.6178 108.783 14.0158 107.131 14.8118 105.675C15.6079 104.218 16.6919 103.092 18.0638 102.296C19.4358 101.483 20.9686 101.076 22.6624 101.076C23.5262 101.076 24.3561 101.144 25.1522 101.279C25.9652 101.415 26.6173 101.542 27.1085 101.66C27.5997 101.779 27.9045 101.855 28.0231 101.889L27.8198 106.03H26.4987L25.9398 103.083C25.6857 102.863 25.2284 102.677 24.5678 102.524C23.9073 102.372 23.1028 102.296 22.1543 102.296C20.9856 102.296 19.9354 102.617 19.0039 103.261C18.0723 103.888 17.3355 104.811 16.7935 106.03C16.2685 107.25 16.0059 108.706 16.0059 110.4C16.0059 111.992 16.2346 113.457 16.6919 114.796C17.1662 116.134 17.8775 117.209 18.826 118.022C19.7745 118.818 20.9432 119.216 22.3321 119.216C23.2975 119.216 24.0513 119.14 24.5933 118.988C25.1353 118.818 25.5926 118.581 25.9652 118.276L26.9814 115.888L28.2263 116.066L27.5912 119.47C27.1847 119.487 26.6935 119.597 26.1176 119.801C25.5079 120.004 24.9235 120.156 24.3646 120.258C23.8057 120.376 23.1112 120.436 22.2813 120.436ZM39.2378 102.423L34.4106 102.575L33.5976 107.733H32.2002L32.6321 101.279H48.1046L48.384 107.733H47.0375L46.3261 102.575L41.4227 102.423V118.835L45.0558 119.064V120.156H35.9096V119.064L39.2378 118.835V102.423ZM59.6825 101.279V102.372L57.1164 102.651V115.99L59.4538 112.661L67.2789 103.388V102.651L64.967 102.372V101.279H71.4201V102.372L69.3368 102.651V118.835L71.5726 119.064V120.156H64.967V119.064L67.2789 118.835V105.294L65.1702 108.368L57.1164 117.844V118.835L59.5554 119.064V120.156H52.899V119.064L55.0839 118.835V102.651L53.0006 102.372V101.279H59.6825ZM78.9364 102.651L76.9039 102.372V101.279H79.9781C80.3507 101.279 80.7149 101.271 81.0706 101.254C81.4432 101.22 81.7142 101.203 81.8836 101.203C82.7643 101.135 83.6112 101.102 84.4242 101.102C86.8124 101.102 88.4976 101.55 89.48 102.448C90.4793 103.329 90.979 104.658 90.979 106.437C90.979 107.775 90.6572 108.935 90.0136 109.918C89.3699 110.9 88.4976 111.654 87.3967 112.179C86.2958 112.687 85.0678 112.941 83.7128 112.941C83.1708 112.941 82.6119 112.932 82.036 112.915C81.4771 112.882 81.1383 112.856 81.0197 112.839V118.81L84.5512 119.064V120.156H76.7515V119.064L78.9364 118.835V102.651ZM81.0197 111.594C81.4432 111.662 82.3578 111.696 83.7636 111.696C85.2202 111.696 86.4143 111.289 87.3459 110.476C88.2775 109.647 88.7432 108.3 88.7432 106.437C88.7432 104.963 88.3452 103.913 87.5491 103.286C86.7531 102.643 85.4997 102.321 83.789 102.321C83.264 102.321 82.6796 102.355 82.036 102.423C81.5279 102.457 81.1891 102.473 81.0197 102.473V111.594ZM103.546 110.4C104.104 110.654 104.714 111.196 105.375 112.026C106.035 112.839 106.84 113.957 107.788 115.38C108.5 116.447 109.076 117.268 109.516 117.844C109.956 118.403 110.321 118.725 110.608 118.81L111.599 119.064V120.156H109.008C108.635 120.156 108.186 119.817 107.661 119.14C107.136 118.446 106.442 117.412 105.578 116.04C104.63 114.499 103.85 113.339 103.241 112.56C102.631 111.781 102.089 111.391 101.615 111.391H99.7346V118.81L101.97 119.089V120.156H95.6188V119.038L97.7275 118.81V102.651L95.6188 102.372V101.279H101.92V102.372L99.7346 102.651V110.273H102.123L107.611 102.651L105.349 102.372V101.279H111.294V102.372L109.364 102.651L103.546 110.4ZM122.025 101.102H124.108L130.485 118.835L132.137 119.064V120.156H125.938V119.064L128.173 118.835L126.827 114.796H118.9L117.554 118.81L119.815 119.064V120.156H114.098V119.064L115.724 118.835L122.025 101.102ZM123.499 105.014L122.787 102.601L122.101 105.09L119.332 113.474H126.369L123.499 105.014ZM152.229 110.4C152.788 110.654 153.398 111.196 154.059 112.026C154.719 112.839 155.524 113.957 156.472 115.38C157.184 116.447 157.759 117.268 158.2 117.844C158.64 118.403 159.004 118.725 159.292 118.81L160.283 119.064V120.156H157.692C157.319 120.156 156.87 119.817 156.345 119.14C155.82 118.446 155.126 117.412 154.262 116.04C153.313 114.499 152.534 113.339 151.924 112.56C151.315 111.781 150.773 111.391 150.298 111.391H148.418V118.81L150.654 119.089V120.156H144.303V119.038L146.411 118.81V102.651L144.303 102.372V101.279H150.603V102.372L148.418 102.651V110.273H150.807L156.294 102.651L154.033 102.372V101.279H159.978V102.372L158.047 102.651L152.229 110.4ZM171.827 120.436C170.184 120.436 168.769 120.038 167.584 119.242C166.415 118.429 165.526 117.302 164.916 115.863C164.306 114.423 164.002 112.755 164.002 110.858C164.002 108.91 164.374 107.199 165.119 105.725C165.865 104.235 166.881 103.092 168.168 102.296C169.455 101.483 170.887 101.076 172.462 101.076C174.139 101.076 175.57 101.466 176.755 102.245C177.958 103.024 178.864 104.125 179.474 105.548C180.101 106.97 180.414 108.639 180.414 110.553C180.414 112.517 180.033 114.254 179.271 115.761C178.508 117.251 177.475 118.403 176.171 119.216C174.867 120.029 173.419 120.436 171.827 120.436ZM172.233 102.27C170.421 102.27 168.981 103.007 167.914 104.481C166.847 105.937 166.313 108.063 166.313 110.858C166.313 112.484 166.542 113.932 166.999 115.202C167.457 116.472 168.126 117.463 169.007 118.175C169.887 118.886 170.937 119.242 172.157 119.242C173.343 119.242 174.376 118.92 175.256 118.276C176.137 117.616 176.823 116.633 177.314 115.329C177.806 114.025 178.051 112.433 178.051 110.553C178.051 108.91 177.823 107.47 177.365 106.234C176.908 104.98 176.239 104.006 175.358 103.312C174.494 102.617 173.453 102.27 172.233 102.27ZM187.318 102.651L185.184 102.372V101.279H188.36C188.919 101.279 189.639 101.246 190.519 101.178C191.332 101.11 191.934 101.076 192.323 101.076C194.525 101.076 196.117 101.44 197.1 102.169C198.099 102.897 198.598 103.956 198.598 105.344C198.598 106.53 198.268 107.563 197.608 108.444C196.964 109.308 196.041 109.858 194.838 110.095C196.43 110.045 197.675 110.426 198.573 111.239C199.488 112.052 199.945 113.144 199.945 114.516C199.945 116.21 199.344 117.599 198.141 118.683C196.956 119.767 195.008 120.309 192.298 120.309C191.976 120.309 191.459 120.292 190.748 120.258C189.867 120.19 189.037 120.156 188.258 120.156H185.133V119.064L187.318 118.835V102.651ZM189.401 109.663C189.672 109.68 190.206 109.689 191.002 109.689H192.526C193.814 109.689 194.796 109.359 195.474 108.698C196.151 108.037 196.49 107.08 196.49 105.827C196.49 104.591 196.151 103.685 195.474 103.109C194.813 102.533 193.67 102.245 192.044 102.245C191.434 102.245 190.807 102.279 190.164 102.346C189.757 102.38 189.503 102.397 189.401 102.397V109.663ZM189.401 118.886C189.842 119.021 190.799 119.089 192.272 119.089C194.169 119.089 195.541 118.733 196.388 118.022C197.235 117.294 197.658 116.252 197.658 114.897C197.658 113.542 197.294 112.56 196.566 111.95C195.838 111.323 194.661 111.01 193.035 111.01H191.154C190.24 111.01 189.655 111.018 189.401 111.035V118.886ZM207.005 102.651L204.972 102.372V101.279H208.046C208.419 101.279 208.783 101.271 209.139 101.254C209.512 101.22 209.783 101.203 209.952 101.203C210.833 101.135 211.68 101.102 212.493 101.102C214.881 101.102 216.566 101.55 217.548 102.448C218.548 103.329 219.047 104.658 219.047 106.437C219.047 107.775 218.726 108.935 218.082 109.918C217.438 110.9 216.566 111.654 215.465 112.179C214.364 112.687 213.136 112.941 211.781 112.941C211.239 112.941 210.68 112.932 210.104 112.915C209.545 112.882 209.207 112.856 209.088 112.839V118.81L212.62 119.064V120.156H204.82V119.064L207.005 118.835V102.651ZM209.088 111.594C209.512 111.662 210.426 111.696 211.832 111.696C213.289 111.696 214.483 111.289 215.414 110.476C216.346 109.647 216.812 108.3 216.812 106.437C216.812 104.963 216.414 103.913 215.617 103.286C214.821 102.643 213.568 102.321 211.857 102.321C211.332 102.321 210.748 102.355 210.104 102.423C209.596 102.457 209.257 102.473 209.088 102.473V111.594ZM231.055 120.436C229.412 120.436 227.998 120.038 226.812 119.242C225.643 118.429 224.754 117.302 224.144 115.863C223.535 114.423 223.23 112.755 223.23 110.858C223.23 108.91 223.602 107.199 224.348 105.725C225.093 104.235 226.109 103.092 227.396 102.296C228.684 101.483 230.115 101.076 231.69 101.076C233.367 101.076 234.798 101.466 235.984 102.245C237.186 103.024 238.092 104.125 238.702 105.548C239.329 106.97 239.642 108.639 239.642 110.553C239.642 112.517 239.261 114.254 238.499 115.761C237.737 117.251 236.704 118.403 235.399 119.216C234.095 120.029 232.647 120.436 231.055 120.436ZM231.461 102.27C229.649 102.27 228.209 103.007 227.142 104.481C226.075 105.937 225.542 108.063 225.542 110.858C225.542 112.484 225.77 113.932 226.228 115.202C226.685 116.472 227.354 117.463 228.235 118.175C229.116 118.886 230.166 119.242 231.385 119.242C232.571 119.242 233.604 118.92 234.485 118.276C235.366 117.616 236.052 116.633 236.543 115.329C237.034 114.025 237.279 112.433 237.279 110.553C237.279 108.91 237.051 107.47 236.594 106.234C236.136 104.98 235.467 104.006 234.586 103.312C233.723 102.617 232.681 102.27 231.461 102.27ZM246.546 102.651L244.412 102.372V101.279H247.588C248.147 101.279 248.867 101.246 249.748 101.178C250.561 101.11 251.162 101.076 251.551 101.076C253.753 101.076 255.345 101.44 256.328 102.169C257.327 102.897 257.827 103.956 257.827 105.344C257.827 106.53 257.497 107.563 256.836 108.444C256.192 109.308 255.269 109.858 254.067 110.095C255.659 110.045 256.904 110.426 257.801 111.239C258.716 112.052 259.173 113.144 259.173 114.516C259.173 116.21 258.572 117.599 257.369 118.683C256.184 119.767 254.236 120.309 251.526 120.309C251.204 120.309 250.688 120.292 249.976 120.258C249.096 120.19 248.266 120.156 247.486 120.156H244.361V119.064L246.546 118.835V102.651ZM248.63 109.663C248.901 109.68 249.434 109.689 250.23 109.689H251.755C253.042 109.689 254.024 109.359 254.702 108.698C255.379 108.037 255.718 107.08 255.718 105.827C255.718 104.591 255.379 103.685 254.702 103.109C254.041 102.533 252.898 102.245 251.272 102.245C250.662 102.245 250.036 102.279 249.392 102.346C248.985 102.38 248.731 102.397 248.63 102.397V109.663ZM248.63 118.886C249.07 119.021 250.027 119.089 251.501 119.089C253.398 119.089 254.77 118.733 255.616 118.022C256.463 117.294 256.887 116.252 256.887 114.897C256.887 113.542 256.523 112.56 255.794 111.95C255.066 111.323 253.889 111.01 252.263 111.01H250.383C249.468 111.01 248.884 111.018 248.63 111.035V118.886Z" fill="#161616"/>
<path d="M161.612 60.9283C161.612 44.6966 184.901 44.3813 184.901 60.9283M161.612 60.9283C161.612 60.9283 161.612 17.8789 161.612 11.5273M161.612 60.9283C161.612 68.1307 167.276 70.0203 170.596 70.1211C170.844 70.1286 170.968 70.1324 171.383 70.0834C171.798 70.0345 171.987 69.9833 172.363 69.881C175.848 68.9344 177.108 67.7841 178.151 64.942C178.34 64.4277 178.434 64.1706 178.499 63.7616C178.564 63.3526 178.553 63.0673 178.531 62.4966C178.396 58.9529 177.492 56.8976 174.52 55.5394C173.953 55.2804 173.67 55.151 172.847 55.0379C172.024 54.9249 171.743 54.9691 171.18 55.0574C166.447 55.8 165.423 59.588 165.846 61.2812C166.546 63.9759 168.005 64.5447 169.92 64.9764C170.339 65.0708 170.548 65.118 170.972 65.1274C170.975 65.1275 170.985 65.1277 170.988 65.1277C171.412 65.1355 171.497 65.1198 171.669 65.0884C173.607 64.7334 173.961 63.1752 173.821 61.9016C173.749 61.2492 173.368 60.6867 172.904 60.2226V60.2226L172.198 59.5169M161.612 11.5273C161.612 -1.17576 184.901 -1.17576 184.901 11.5273C184.901 16.4673 184.901 60.9283 184.901 60.9283M161.612 11.5273H95.2734C91.4217 11.5273 88.7379 9.19171 86.6908 3.98932C86.4493 3.37555 86.3286 3.06867 86.2137 3.09045C86.0989 3.11223 86.0989 3.43897 86.0989 4.09245V24.9362M184.901 60.9283C184.366 67.9616 182.688 71.5886 178.067 74.2264C176.789 74.9563 176.149 75.3213 174.014 75.8879C171.879 76.4544 170.344 76.4544 167.274 76.4544L97.8893 76.4544C96.4988 76.4544 95.8036 76.4544 95.0068 76.2671C94.2101 76.0798 93.7642 75.8578 92.8724 75.414C88.6916 73.333 87.086 70.7167 86.0989 65.1628" stroke="#161616" stroke-width="2.11719"/>
<path d="M10.6686 138.63V139.391C10.6686 140.295 10.5556 141.106 10.3296 141.822C10.1035 142.539 9.77821 143.148 9.35367 143.65C8.92913 144.152 8.41913 144.535 7.82367 144.8C7.23372 145.064 6.5721 145.197 5.83881 145.197C5.12756 145.197 4.47421 145.064 3.87875 144.8C3.28881 144.535 2.77605 144.152 2.34048 143.65C1.91043 143.148 1.57686 142.539 1.33978 141.822C1.1027 141.106 0.984161 140.295 0.984161 139.391V138.63C0.984161 137.726 1.09995 136.918 1.33151 136.207C1.56859 135.49 1.90216 134.881 2.33221 134.379C2.76227 133.872 3.27227 133.486 3.86221 133.221C4.45767 132.957 5.11102 132.824 5.82227 132.824C6.55556 132.824 7.21718 132.957 7.80713 133.221C8.40259 133.486 8.91259 133.872 9.33713 134.379C9.76718 134.881 10.0952 135.49 10.3213 136.207C10.5529 136.918 10.6686 137.726 10.6686 138.63ZM9.08902 139.391V138.614C9.08902 137.897 9.01459 137.263 8.86572 136.711C8.72237 136.16 8.5101 135.697 8.22891 135.322C7.94772 134.947 7.60313 134.663 7.19513 134.47C6.79264 134.277 6.33502 134.181 5.82227 134.181C5.32605 134.181 4.8767 134.277 4.47421 134.47C4.07724 134.663 3.7354 134.947 3.4487 135.322C3.16751 135.697 2.94973 136.16 2.79535 136.711C2.64097 137.263 2.56378 137.897 2.56378 138.614V139.391C2.56378 140.113 2.64097 140.753 2.79535 141.31C2.94973 141.861 3.17027 142.327 3.45697 142.707C3.74919 143.082 4.09378 143.366 4.49075 143.559C4.89324 143.752 5.34259 143.849 5.83881 143.849C6.35708 143.849 6.81745 143.752 7.21994 143.559C7.62243 143.366 7.96151 143.082 8.23718 142.707C8.51837 142.327 8.73064 141.861 8.87399 141.31C9.01734 140.753 9.08902 140.113 9.08902 139.391ZM17.1519 136.083V145.031H15.6136V136.083H17.1519ZM20.154 136.083V137.323H12.6694V136.083H20.154ZM27.4808 142.997L30.5242 136.083H31.9963L28.0101 145.031H26.9515L22.9817 136.083H24.4538L27.4808 142.997ZM24.0073 136.083V145.031H22.4773V136.083H24.0073ZM30.9047 145.031V136.083H32.4429V145.031H30.9047ZM36.842 139.159H39.5299C40.2521 139.159 40.8614 139.286 41.3576 139.54C41.8538 139.788 42.2287 140.132 42.4824 140.574C42.7415 141.009 42.8711 141.505 42.8711 142.062C42.8711 142.476 42.7994 142.864 42.656 143.228C42.5127 143.587 42.2977 143.901 42.011 144.171C41.7298 144.441 41.3797 144.654 40.9606 144.808C40.5471 144.957 40.0702 145.031 39.5299 145.031H35.7256V136.083H37.2556V143.774H39.5299C39.971 143.774 40.3238 143.694 40.5885 143.534C40.8531 143.374 41.0433 143.168 41.1591 142.914C41.2749 142.66 41.3328 142.396 41.3328 142.12C41.3328 141.85 41.2749 141.585 41.1591 141.326C41.0433 141.067 40.8531 140.852 40.5885 140.681C40.3238 140.505 39.971 140.416 39.5299 140.416H36.842V139.159ZM46.0551 136.083V145.031H44.5251V136.083H46.0551ZM53.6135 141.095H50.6775L50.661 139.871H53.0594C53.5335 139.871 53.9277 139.824 54.242 139.73C54.5618 139.636 54.8016 139.496 54.9615 139.308C55.1214 139.121 55.2014 138.889 55.2014 138.614C55.2014 138.398 55.1545 138.211 55.0608 138.051C54.9726 137.886 54.8375 137.751 54.6555 137.646C54.4736 137.536 54.2475 137.456 53.9774 137.406C53.7127 137.351 53.4012 137.323 53.0428 137.323H51.0828V145.031H49.5528V136.083H53.0428C53.6107 136.083 54.1207 136.132 54.5728 136.232C55.0304 136.331 55.4191 136.483 55.7389 136.687C56.0642 136.885 56.3123 137.139 56.4833 137.447C56.6542 137.756 56.7396 138.12 56.7396 138.539C56.7396 138.809 56.6845 139.066 56.5742 139.308C56.464 139.551 56.3013 139.766 56.0863 139.953C55.8713 140.141 55.6066 140.295 55.2923 140.416C54.9781 140.532 54.6169 140.607 54.2089 140.64L53.6135 141.095ZM53.6135 145.031H50.1234L50.8843 143.791H53.6135C54.038 143.791 54.3909 143.738 54.6721 143.634C54.9533 143.523 55.1628 143.369 55.3006 143.17C55.444 142.966 55.5156 142.724 55.5156 142.443C55.5156 142.161 55.444 141.922 55.3006 141.723C55.1628 141.519 54.9533 141.365 54.6721 141.26C54.3909 141.15 54.038 141.095 53.6135 141.095H51.2895L51.3061 139.871H54.2089L54.763 140.334C55.2537 140.372 55.67 140.494 56.0118 140.698C56.3537 140.902 56.6128 141.161 56.7893 141.475C56.9657 141.784 57.0539 142.12 57.0539 142.484C57.0539 142.903 56.974 143.272 56.8141 143.592C56.6597 143.912 56.4336 144.179 56.1359 144.394C55.8382 144.604 55.477 144.764 55.0525 144.874C54.628 144.979 54.1483 145.031 53.6135 145.031ZM65.0589 143.501V138.895C65.0589 138.542 64.9872 138.236 64.8438 137.977C64.706 137.712 64.4965 137.508 64.2153 137.365C63.9341 137.221 63.5868 137.15 63.1732 137.15C62.7873 137.15 62.4482 137.216 62.156 137.348C61.8693 137.48 61.6432 137.654 61.4778 137.869C61.3179 138.084 61.238 138.316 61.238 138.564H59.708C59.708 138.244 59.7907 137.927 59.9561 137.613C60.1215 137.299 60.3586 137.015 60.6673 136.761C60.9816 136.502 61.3565 136.298 61.7921 136.149C62.2332 135.995 62.7239 135.917 63.2642 135.917C63.9148 135.917 64.4882 136.028 64.9844 136.248C65.4862 136.469 65.8776 136.802 66.1588 137.249C66.4455 137.69 66.5889 138.244 66.5889 138.911V143.079C66.5889 143.377 66.6137 143.694 66.6633 144.031C66.7184 144.367 66.7984 144.656 66.9031 144.899V145.031H65.307C65.2298 144.855 65.1691 144.62 65.125 144.328C65.0809 144.031 65.0589 143.755 65.0589 143.501ZM65.3235 139.606L65.34 140.681H63.7935C63.3579 140.681 62.9692 140.717 62.6274 140.789C62.2856 140.855 61.9989 140.957 61.7673 141.095C61.5357 141.232 61.3593 141.406 61.238 141.616C61.1167 141.82 61.056 142.059 61.056 142.335C61.056 142.616 61.1195 142.873 61.2463 143.104C61.3731 143.336 61.5633 143.521 61.8169 143.658C62.076 143.791 62.3931 143.857 62.768 143.857C63.2366 143.857 63.6502 143.758 64.0085 143.559C64.3669 143.361 64.6509 143.118 64.8604 142.831C65.0754 142.545 65.1912 142.266 65.2077 141.996L65.8611 142.732C65.8225 142.964 65.7177 143.22 65.5468 143.501C65.3759 143.782 65.1471 144.053 64.8604 144.312C64.5792 144.565 64.2429 144.778 63.8514 144.949C63.4655 145.114 63.0299 145.197 62.5447 145.197C61.9382 145.197 61.4062 145.078 60.9485 144.841C60.4964 144.604 60.1436 144.287 59.8899 143.89C59.6418 143.487 59.5178 143.038 59.5178 142.542C59.5178 142.062 59.6115 141.64 59.799 141.277C59.9864 140.907 60.2566 140.601 60.6095 140.359C60.9623 140.11 61.3869 139.923 61.8831 139.796C62.3793 139.669 62.9334 139.606 63.5454 139.606H65.3235ZM73.3864 145.197C72.7633 145.197 72.1982 145.092 71.6909 144.882C71.1892 144.667 70.7564 144.367 70.3925 143.981C70.0341 143.595 69.7585 143.137 69.5655 142.608C69.3725 142.079 69.276 141.5 69.276 140.871V140.524C69.276 139.796 69.3835 139.148 69.5986 138.58C69.8136 138.007 70.1058 137.522 70.4752 137.125C70.8446 136.728 71.2637 136.427 71.7323 136.223C72.2009 136.019 72.6861 135.917 73.1879 135.917C73.8274 135.917 74.3788 136.028 74.8419 136.248C75.3106 136.469 75.6938 136.778 75.9915 137.174C76.2892 137.566 76.5098 138.029 76.6531 138.564C76.7965 139.093 76.8681 139.672 76.8681 140.301V140.987H70.1858V139.738H75.3381V139.622C75.3161 139.226 75.2334 138.84 75.09 138.465C74.9522 138.09 74.7316 137.781 74.4284 137.538C74.1252 137.296 73.7116 137.174 73.1879 137.174C72.8405 137.174 72.5207 137.249 72.2285 137.398C71.9363 137.541 71.6854 137.756 71.4759 138.043C71.2664 138.33 71.1038 138.68 70.988 139.093C70.8722 139.507 70.8143 139.984 70.8143 140.524V140.871C70.8143 141.296 70.8722 141.696 70.988 142.07C71.1093 142.44 71.2829 142.765 71.509 143.046C71.7406 143.328 72.019 143.548 72.3443 143.708C72.6751 143.868 73.05 143.948 73.4691 143.948C74.0094 143.948 74.467 143.838 74.8419 143.617C75.2168 143.396 75.5449 143.102 75.8261 142.732L76.7523 143.468C76.5594 143.76 76.314 144.039 76.0163 144.303C75.7186 144.568 75.3519 144.783 74.9164 144.949C74.4863 145.114 73.9763 145.197 73.3864 145.197ZM84.4761 142.997L87.5196 136.083H88.9917L85.0054 145.031H83.9468L79.9771 136.083H81.4492L84.4761 142.997ZM81.0026 136.083V145.031H79.4726V136.083H81.0026ZM87.9 145.031V136.083H89.4383V145.031H87.9ZM99.0718 136.083H100.602L100.469 139.432C100.436 140.281 100.34 141.015 100.18 141.632C100.02 142.25 99.8161 142.776 99.568 143.212C99.3199 143.642 99.0415 144.003 98.7327 144.295C98.4295 144.587 98.1152 144.833 97.7899 145.031H97.0291L97.0704 143.782L97.3847 143.774C97.5666 143.559 97.7431 143.339 97.914 143.113C98.0849 142.881 98.242 142.608 98.3854 142.294C98.5287 141.974 98.6473 141.585 98.741 141.128C98.8402 140.665 98.9036 140.099 98.9312 139.432L99.0718 136.083ZM99.4522 136.083H104.836V145.031H103.306V137.497H99.4522V136.083ZM96.6817 143.774H105.986V147.669H104.456V145.031H98.2117V147.669H96.6734L96.6817 143.774ZM107.953 140.656V140.466C107.953 139.821 108.047 139.223 108.235 138.671C108.422 138.115 108.692 137.632 109.045 137.224C109.398 136.811 109.825 136.491 110.327 136.265C110.829 136.033 111.391 135.917 112.014 135.917C112.643 135.917 113.208 136.033 113.71 136.265C114.217 136.491 114.647 136.811 115 137.224C115.358 137.632 115.631 138.115 115.818 138.671C116.006 139.223 116.1 139.821 116.1 140.466V140.656C116.1 141.301 116.006 141.9 115.818 142.451C115.631 143.002 115.358 143.485 115 143.898C114.647 144.306 114.22 144.626 113.718 144.858C113.222 145.084 112.659 145.197 112.031 145.197C111.402 145.197 110.837 145.084 110.335 144.858C109.834 144.626 109.403 144.306 109.045 143.898C108.692 143.485 108.422 143.002 108.235 142.451C108.047 141.9 107.953 141.301 107.953 140.656ZM109.483 140.466V140.656C109.483 141.103 109.536 141.525 109.641 141.922C109.745 142.313 109.902 142.66 110.112 142.964C110.327 143.267 110.594 143.507 110.914 143.683C111.234 143.854 111.606 143.94 112.031 143.94C112.45 143.94 112.816 143.854 113.131 143.683C113.45 143.507 113.715 143.267 113.925 142.964C114.134 142.66 114.291 142.313 114.396 141.922C114.506 141.525 114.561 141.103 114.561 140.656V140.466C114.561 140.025 114.506 139.609 114.396 139.217C114.291 138.82 114.131 138.47 113.916 138.167C113.707 137.858 113.442 137.616 113.122 137.439C112.808 137.263 112.439 137.174 112.014 137.174C111.595 137.174 111.226 137.263 110.906 137.439C110.592 137.616 110.327 137.858 110.112 138.167C109.902 138.47 109.745 138.82 109.641 139.217C109.536 139.609 109.483 140.025 109.483 140.466ZM129.537 136.083V137.348H125.014V136.083H129.537ZM125.237 136.083V145.031H123.707V136.083H125.237ZM130.894 136.083V145.031H129.356V136.083H130.894ZM137.741 145.197C137.118 145.197 136.553 145.092 136.046 144.882C135.544 144.667 135.111 144.367 134.747 143.981C134.389 143.595 134.113 143.137 133.92 142.608C133.727 142.079 133.631 141.5 133.631 140.871V140.524C133.631 139.796 133.738 139.148 133.953 138.58C134.168 138.007 134.46 137.522 134.83 137.125C135.199 136.728 135.618 136.427 136.087 136.223C136.556 136.019 137.041 135.917 137.542 135.917C138.182 135.917 138.733 136.028 139.196 136.248C139.665 136.469 140.048 136.778 140.346 137.174C140.644 137.566 140.864 138.029 141.008 138.564C141.151 139.093 141.223 139.672 141.223 140.301V140.987H134.54V139.738H139.693V139.622C139.671 139.226 139.588 138.84 139.445 138.465C139.307 138.09 139.086 137.781 138.783 137.538C138.48 137.296 138.066 137.174 137.542 137.174C137.195 137.174 136.875 137.249 136.583 137.398C136.291 137.541 136.04 137.756 135.83 138.043C135.621 138.33 135.458 138.68 135.343 139.093C135.227 139.507 135.169 139.984 135.169 140.524V140.871C135.169 141.296 135.227 141.696 135.343 142.07C135.464 142.44 135.638 142.765 135.864 143.046C136.095 143.328 136.374 143.548 136.699 143.708C137.03 143.868 137.405 143.948 137.824 143.948C138.364 143.948 138.822 143.838 139.196 143.617C139.571 143.396 139.899 143.102 140.181 142.732L141.107 143.468C140.914 143.76 140.669 144.039 140.371 144.303C140.073 144.568 139.706 144.783 139.271 144.949C138.841 145.114 138.331 145.197 137.741 145.197ZM145.217 137.803V148.472H143.678V136.083H145.084L145.217 137.803ZM151.246 140.483V140.656C151.246 141.307 151.168 141.911 151.014 142.467C150.86 143.019 150.634 143.498 150.336 143.906C150.044 144.314 149.683 144.632 149.252 144.858C148.822 145.084 148.329 145.197 147.772 145.197C147.204 145.197 146.702 145.103 146.267 144.915C145.831 144.728 145.462 144.455 145.159 144.097C144.855 143.738 144.613 143.308 144.431 142.807C144.254 142.305 144.133 141.74 144.067 141.111V140.185C144.133 139.523 144.257 138.931 144.439 138.407C144.621 137.883 144.861 137.436 145.159 137.067C145.462 136.692 145.829 136.408 146.259 136.215C146.689 136.017 147.185 135.917 147.747 135.917C148.31 135.917 148.809 136.028 149.244 136.248C149.68 136.463 150.046 136.772 150.344 137.174C150.642 137.577 150.865 138.059 151.014 138.622C151.168 139.179 151.246 139.799 151.246 140.483ZM149.707 140.656V140.483C149.707 140.036 149.66 139.617 149.567 139.226C149.473 138.829 149.327 138.481 149.128 138.183C148.935 137.88 148.687 137.643 148.384 137.472C148.081 137.296 147.72 137.208 147.301 137.208C146.915 137.208 146.578 137.274 146.292 137.406C146.011 137.538 145.771 137.718 145.572 137.944C145.374 138.164 145.211 138.418 145.084 138.704C144.963 138.986 144.872 139.278 144.811 139.581V141.723C144.922 142.109 145.076 142.473 145.274 142.815C145.473 143.151 145.738 143.424 146.068 143.634C146.399 143.838 146.815 143.94 147.317 143.94C147.731 143.94 148.086 143.854 148.384 143.683C148.687 143.507 148.935 143.267 149.128 142.964C149.327 142.66 149.473 142.313 149.567 141.922C149.66 141.525 149.707 141.103 149.707 140.656ZM158.076 141.095H155.14L155.124 139.871H157.522C157.996 139.871 158.39 139.824 158.705 139.73C159.024 139.636 159.264 139.496 159.424 139.308C159.584 139.121 159.664 138.889 159.664 138.614C159.664 138.398 159.617 138.211 159.523 138.051C159.435 137.886 159.3 137.751 159.118 137.646C158.936 137.536 158.71 137.456 158.44 137.406C158.175 137.351 157.864 137.323 157.506 137.323H155.545V145.031H154.015V136.083H157.506C158.073 136.083 158.583 136.132 159.036 136.232C159.493 136.331 159.882 136.483 160.202 136.687C160.527 136.885 160.775 137.139 160.946 137.447C161.117 137.756 161.202 138.12 161.202 138.539C161.202 138.809 161.147 139.066 161.037 139.308C160.927 139.551 160.764 139.766 160.549 139.953C160.334 140.141 160.069 140.295 159.755 140.416C159.441 140.532 159.08 140.607 158.672 140.64L158.076 141.095ZM158.076 145.031H154.586L155.347 143.791H158.076C158.501 143.791 158.854 143.738 159.135 143.634C159.416 143.523 159.625 143.369 159.763 143.17C159.907 142.966 159.978 142.724 159.978 142.443C159.978 142.161 159.907 141.922 159.763 141.723C159.625 141.519 159.416 141.365 159.135 141.26C158.854 141.15 158.501 141.095 158.076 141.095H155.752L155.769 139.871H158.672L159.226 140.334C159.716 140.372 160.133 140.494 160.475 140.698C160.816 140.902 161.076 141.161 161.252 141.475C161.428 141.784 161.517 142.12 161.517 142.484C161.517 142.903 161.437 143.272 161.277 143.592C161.122 143.912 160.896 144.179 160.599 144.394C160.301 144.604 159.94 144.764 159.515 144.874C159.091 144.979 158.611 145.031 158.076 145.031ZM163.84 140.656V140.466C163.84 139.821 163.934 139.223 164.121 138.671C164.309 138.115 164.579 137.632 164.932 137.224C165.284 136.811 165.712 136.491 166.213 136.265C166.715 136.033 167.278 135.917 167.901 135.917C168.529 135.917 169.094 136.033 169.596 136.265C170.103 136.491 170.533 136.811 170.886 137.224C171.245 137.632 171.517 138.115 171.705 138.671C171.892 139.223 171.986 139.821 171.986 140.466V140.656C171.986 141.301 171.892 141.9 171.705 142.451C171.517 143.002 171.245 143.485 170.886 143.898C170.533 144.306 170.106 144.626 169.604 144.858C169.108 145.084 168.546 145.197 167.917 145.197C167.289 145.197 166.723 145.084 166.222 144.858C165.72 144.626 165.29 144.306 164.932 143.898C164.579 143.485 164.309 143.002 164.121 142.451C163.934 141.9 163.84 141.301 163.84 140.656ZM165.37 140.466V140.656C165.37 141.103 165.422 141.525 165.527 141.922C165.632 142.313 165.789 142.66 165.998 142.964C166.213 143.267 166.481 143.507 166.801 143.683C167.12 143.854 167.493 143.94 167.917 143.94C168.336 143.94 168.703 143.854 169.017 143.683C169.337 143.507 169.601 143.267 169.811 142.964C170.021 142.66 170.178 142.313 170.282 141.922C170.393 141.525 170.448 141.103 170.448 140.656V140.466C170.448 140.025 170.393 139.609 170.282 139.217C170.178 138.82 170.018 138.47 169.803 138.167C169.593 137.858 169.329 137.616 169.009 137.439C168.695 137.263 168.325 137.174 167.901 137.174C167.482 137.174 167.112 137.263 166.792 137.439C166.478 137.616 166.213 137.858 165.998 138.167C165.789 138.47 165.632 138.82 165.527 139.217C165.422 139.609 165.37 140.025 165.37 140.466ZM176.236 142.608L180.363 136.083H181.901V145.031H180.363V138.506L176.236 145.031H174.715V136.083H176.236V142.608ZM179.528 132.841H180.768C180.768 133.271 180.669 133.654 180.471 133.99C180.272 134.321 179.988 134.58 179.619 134.768C179.249 134.955 178.811 135.049 178.304 135.049C177.538 135.049 176.931 134.845 176.484 134.437C176.043 134.024 175.823 133.491 175.823 132.841H177.063C177.063 133.166 177.157 133.453 177.345 133.701C177.532 133.949 177.852 134.073 178.304 134.073C178.745 134.073 179.059 133.949 179.247 133.701C179.434 133.453 179.528 133.166 179.528 132.841ZM193.495 143.94C193.859 143.94 194.195 143.865 194.504 143.716C194.813 143.567 195.066 143.363 195.265 143.104C195.463 142.84 195.576 142.539 195.604 142.203H197.06C197.032 142.732 196.853 143.226 196.522 143.683C196.197 144.135 195.769 144.502 195.24 144.783C194.711 145.059 194.129 145.197 193.495 145.197C192.822 145.197 192.235 145.078 191.733 144.841C191.237 144.604 190.824 144.279 190.493 143.865C190.168 143.452 189.922 142.977 189.757 142.443C189.597 141.902 189.517 141.332 189.517 140.731V140.383C189.517 139.782 189.597 139.214 189.757 138.68C189.922 138.139 190.168 137.662 190.493 137.249C190.824 136.835 191.237 136.51 191.733 136.273C192.235 136.036 192.822 135.917 193.495 135.917C194.195 135.917 194.807 136.061 195.331 136.347C195.855 136.629 196.266 137.015 196.563 137.505C196.867 137.99 197.032 138.542 197.06 139.159H195.604C195.576 138.79 195.472 138.456 195.29 138.159C195.113 137.861 194.871 137.624 194.562 137.447C194.259 137.265 193.903 137.174 193.495 137.174C193.026 137.174 192.632 137.268 192.312 137.456C191.998 137.638 191.747 137.886 191.56 138.2C191.378 138.509 191.246 138.853 191.163 139.234C191.086 139.609 191.047 139.992 191.047 140.383V140.731C191.047 141.122 191.086 141.508 191.163 141.889C191.24 142.269 191.37 142.614 191.552 142.922C191.739 143.231 191.99 143.479 192.304 143.667C192.624 143.849 193.021 143.94 193.495 143.94ZM203.659 141.095H200.723L200.706 139.871H203.104C203.579 139.871 203.973 139.824 204.287 139.73C204.607 139.636 204.847 139.496 205.007 139.308C205.166 139.121 205.246 138.889 205.246 138.614C205.246 138.398 205.2 138.211 205.106 138.051C205.018 137.886 204.883 137.751 204.701 137.646C204.519 137.536 204.293 137.456 204.022 137.406C203.758 137.351 203.446 137.323 203.088 137.323H201.128V145.031H199.598V136.083H203.088C203.656 136.083 204.166 136.132 204.618 136.232C205.076 136.331 205.464 136.483 205.784 136.687C206.109 136.885 206.357 137.139 206.528 137.447C206.699 137.756 206.785 138.12 206.785 138.539C206.785 138.809 206.73 139.066 206.619 139.308C206.509 139.551 206.346 139.766 206.131 139.953C205.916 140.141 205.652 140.295 205.337 140.416C205.023 140.532 204.662 140.607 204.254 140.64L203.659 141.095ZM203.659 145.031H200.169L200.929 143.791H203.659C204.083 143.791 204.436 143.738 204.717 143.634C204.998 143.523 205.208 143.369 205.346 143.17C205.489 142.966 205.561 142.724 205.561 142.443C205.561 142.161 205.489 141.922 205.346 141.723C205.208 141.519 204.998 141.365 204.717 141.26C204.436 141.15 204.083 141.095 203.659 141.095H201.335L201.351 139.871H204.254L204.808 140.334C205.299 140.372 205.715 140.494 206.057 140.698C206.399 140.902 206.658 141.161 206.834 141.475C207.011 141.784 207.099 142.12 207.099 142.484C207.099 142.903 207.019 143.272 206.859 143.592C206.705 143.912 206.479 144.179 206.181 144.394C205.883 144.604 205.522 144.764 205.098 144.874C204.673 144.979 204.193 145.031 203.659 145.031ZM213.541 145.197C212.918 145.197 212.353 145.092 211.845 144.882C211.344 144.667 210.911 144.367 210.547 143.981C210.189 143.595 209.913 143.137 209.72 142.608C209.527 142.079 209.431 141.5 209.431 140.871V140.524C209.431 139.796 209.538 139.148 209.753 138.58C209.968 138.007 210.26 137.522 210.63 137.125C210.999 136.728 211.418 136.427 211.887 136.223C212.355 136.019 212.841 135.917 213.342 135.917C213.982 135.917 214.533 136.028 214.996 136.248C215.465 136.469 215.848 136.778 216.146 137.174C216.444 137.566 216.664 138.029 216.808 138.564C216.951 139.093 217.023 139.672 217.023 140.301V140.987H210.34V139.738H215.493V139.622C215.471 139.226 215.388 138.84 215.245 138.465C215.107 138.09 214.886 137.781 214.583 137.538C214.28 137.296 213.866 137.174 213.342 137.174C212.995 137.174 212.675 137.249 212.383 137.398C212.091 137.541 211.84 137.756 211.63 138.043C211.421 138.33 211.258 138.68 211.142 139.093C211.027 139.507 210.969 139.984 210.969 140.524V140.871C210.969 141.296 211.027 141.696 211.142 142.07C211.264 142.44 211.437 142.765 211.663 143.046C211.895 143.328 212.173 143.548 212.499 143.708C212.83 143.868 213.205 143.948 213.624 143.948C214.164 143.948 214.621 143.838 214.996 143.617C215.371 143.396 215.699 143.102 215.981 142.732L216.907 143.468C216.714 143.76 216.469 144.039 216.171 144.303C215.873 144.568 215.506 144.783 215.071 144.949C214.641 145.114 214.131 145.197 213.541 145.197ZM222.199 141.136L218.808 136.083H220.653L222.968 139.788H224.755L224.531 141.136H222.199ZM223.034 140.979L220.438 145.031H218.502L222.067 139.871L223.034 140.979ZM225.54 136.083V145.031H224.01V136.083H225.54ZM230.759 136.083L227.368 141.136H225.036L224.796 139.788H226.591L228.906 136.083H230.759ZM229.121 145.031L226.516 140.979L227.5 139.871L231.057 145.031H229.121ZM236.696 145.197C236.073 145.197 235.508 145.092 235.001 144.882C234.499 144.667 234.066 144.367 233.702 143.981C233.344 143.595 233.068 143.137 232.875 142.608C232.682 142.079 232.586 141.5 232.586 140.871V140.524C232.586 139.796 232.693 139.148 232.908 138.58C233.124 138.007 233.416 137.522 233.785 137.125C234.155 136.728 234.574 136.427 235.042 136.223C235.511 136.019 235.996 135.917 236.498 135.917C237.137 135.917 237.689 136.028 238.152 136.248C238.62 136.469 239.004 136.778 239.301 137.174C239.599 137.566 239.82 138.029 239.963 138.564C240.106 139.093 240.178 139.672 240.178 140.301V140.987H233.496V139.738H238.648V139.622C238.626 139.226 238.543 138.84 238.4 138.465C238.262 138.09 238.042 137.781 237.738 137.538C237.435 137.296 237.022 137.174 236.498 137.174C236.15 137.174 235.831 137.249 235.538 137.398C235.246 137.541 234.995 137.756 234.786 138.043C234.576 138.33 234.414 138.68 234.298 139.093C234.182 139.507 234.124 139.984 234.124 140.524V140.871C234.124 141.296 234.182 141.696 234.298 142.07C234.419 142.44 234.593 142.765 234.819 143.046C235.05 143.328 235.329 143.548 235.654 143.708C235.985 143.868 236.36 143.948 236.779 143.948C237.319 143.948 237.777 143.838 238.152 143.617C238.527 143.396 238.855 143.102 239.136 142.732L240.062 143.468C239.869 143.76 239.624 144.039 239.326 144.303C239.028 144.568 238.662 144.783 238.226 144.949C237.796 145.114 237.286 145.197 236.696 145.197ZM246.223 143.94C246.587 143.94 246.923 143.865 247.232 143.716C247.541 143.567 247.794 143.363 247.993 143.104C248.191 142.84 248.304 142.539 248.332 142.203H249.787C249.76 142.732 249.581 143.226 249.25 143.683C248.925 144.135 248.497 144.502 247.968 144.783C247.439 145.059 246.857 145.197 246.223 145.197C245.55 145.197 244.963 145.078 244.461 144.841C243.965 144.604 243.552 144.279 243.221 143.865C242.896 143.452 242.65 142.977 242.485 142.443C242.325 141.902 242.245 141.332 242.245 140.731V140.383C242.245 139.782 242.325 139.214 242.485 138.68C242.65 138.139 242.896 137.662 243.221 137.249C243.552 136.835 243.965 136.51 244.461 136.273C244.963 136.036 245.55 135.917 246.223 135.917C246.923 135.917 247.535 136.061 248.059 136.347C248.583 136.629 248.993 137.015 249.291 137.505C249.594 137.99 249.76 138.542 249.787 139.159H248.332C248.304 138.79 248.2 138.456 248.018 138.159C247.841 137.861 247.599 137.624 247.29 137.447C246.987 137.265 246.631 137.174 246.223 137.174C245.754 137.174 245.36 137.268 245.04 137.456C244.726 137.638 244.475 137.886 244.288 138.2C244.106 138.509 243.973 138.853 243.891 139.234C243.814 139.609 243.775 139.992 243.775 140.383V140.731C243.775 141.122 243.814 141.508 243.891 141.889C243.968 142.269 244.097 142.614 244.279 142.922C244.467 143.231 244.718 143.479 245.032 143.667C245.352 143.849 245.749 143.94 246.223 143.94ZM255.832 136.083V145.031H254.294V136.083H255.832ZM258.834 136.083V137.323H251.35V136.083H258.834ZM262.671 142.608L266.798 136.083H268.336V145.031H266.798V138.506L262.671 145.031H261.149V136.083H262.671V142.608Z" fill="#8A8A8A"/>
</svg>
