<svg width="33" height="33" viewBox="0 0 33 33" fill="none" xmlns="http://www.w3.org/2000/svg">
<path fill-rule="evenodd" clip-rule="evenodd" d="M4.67283 1.59172C5.02399 1.2411 5.44565 0.969104 5.90987 0.793766C6.37409 0.618428 6.87028 0.54375 7.36554 0.574681C7.86081 0.605611 8.34385 0.741444 8.78265 0.973178C9.22145 1.20491 9.60599 1.52725 9.91079 1.91884L13.5131 6.54671C14.1734 7.39563 14.4062 8.50142 14.1453 9.545L13.0475 13.9401C12.9908 14.1677 12.9939 14.4062 13.0565 14.6323C13.119 14.8584 13.239 15.0644 13.4048 15.2305L18.3357 20.1614C18.5019 20.3275 18.7083 20.4477 18.9348 20.5103C19.1613 20.5729 19.4002 20.5758 19.6281 20.5186L24.0212 19.4209C24.5362 19.2921 25.0737 19.2821 25.5931 19.3916C26.1126 19.5011 26.6003 19.7273 27.0195 20.053L31.6473 23.6534C33.311 24.9478 33.4636 27.4062 31.9744 28.8933L29.8993 30.9685C28.4142 32.4536 26.1946 33.1058 24.1255 32.3773C18.8297 30.514 14.0214 27.4822 10.0573 23.5069C6.08224 19.5433 3.05049 14.7357 1.18688 9.44064C0.460388 7.37355 1.11262 5.15193 2.59772 3.66684L4.67283 1.59172Z" fill="#283E78" fill-opacity="0.74"/>
</svg>
