<svg width="196" height="196" viewBox="0 0 196 196" fill="none" xmlns="http://www.w3.org/2000/svg">
<rect width="196" height="196" fill="white"/>
<rect width="156.084" height="156.084" transform="translate(17.7991 17.7991)" fill="white"/>
<path d="M143.26 68.9522V68.96C144.117 67.1502 144.617 65.2607 144.617 63.3236V55.1942C144.617 41.7299 122.777 30.8061 95.8409 30.8061C68.9045 30.8061 47.0647 41.7299 47.0647 55.1942C47.0647 54.5274 47.1599 53.8762 47.2631 53.2254C37.1887 57.6871 30.8059 64.197 30.8059 71.453V79.5823C30.8059 87.1244 37.6651 93.8644 48.4223 98.3338C47.5649 100.144 47.0647 102.033 47.0647 103.97V112.1C47.0647 114.958 48.0968 117.681 49.9069 120.229C48.0968 122.778 47.0647 125.501 47.0647 128.359V136.488C47.0647 149.952 68.9045 160.876 95.8409 160.876C122.777 160.876 144.617 149.952 144.617 136.488V128.359C144.617 125.453 143.545 122.682 141.688 120.102C141.672 120.118 141.656 120.142 141.64 120.158C143.006 118.221 144.077 116.204 144.419 114.069C154.493 109.599 160.876 103.097 160.876 95.8411V87.7117C160.876 80.1699 154.017 73.4218 143.26 68.9522ZM95.8409 34.8708C122.19 34.8708 140.552 45.5802 140.552 55.1942C140.552 64.8003 122.19 75.5177 95.8409 75.5177C69.4918 75.5177 51.1293 64.8003 51.1293 55.1942C51.1293 45.5802 69.4918 34.8708 95.8409 34.8708ZM34.8706 71.453C34.8706 66.7054 39.372 61.7119 47.0647 57.8538V63.3236C47.0647 76.7879 68.9045 87.7117 95.8409 87.7117C99.866 87.7117 103.756 87.4417 107.495 86.9814C100.041 89.8472 90.5695 91.7764 79.5822 91.7764C53.2331 91.7764 34.8706 81.0591 34.8706 71.453ZM140.552 128.359C140.552 137.964 122.19 148.682 95.8409 148.682C69.4918 148.682 51.1293 137.964 51.1293 128.359C51.1293 126.763 51.8122 125.143 52.7728 123.54C52.7649 123.532 52.7489 123.516 52.741 123.5C60.926 131.224 77.153 136.488 95.8409 136.488C114.553 136.488 130.7 131.185 138.869 123.444C138.862 123.452 138.862 123.452 138.854 123.46C139.854 125.088 140.552 126.731 140.552 128.359ZM123.77 119.499C116.307 122.373 106.836 124.294 95.8409 124.294C69.4918 124.294 51.1293 113.576 51.1293 103.97C51.1293 102.589 51.6057 101.192 52.3282 99.8105C56.3136 101.152 60.7195 102.208 65.4274 102.915C71.4924 112.933 90.0853 120.229 112.1 120.229C116.14 120.229 120.046 119.959 123.801 119.491C123.794 119.491 123.786 119.499 123.77 119.499ZM112.1 108.035C101.668 108.035 92.5701 106.32 85.2821 103.693C108.202 102.343 126.302 93.1419 128.16 81.5512C133.693 79.0981 138.123 76.0415 140.973 72.5644C140.965 72.5644 140.965 72.5644 140.965 72.5644C150.809 76.5656 156.811 82.2816 156.811 87.7117C156.811 97.3176 138.449 108.035 112.1 108.035ZM104.526 61.1167C104.526 60.2593 103.843 59.6003 102.478 59.1636C101.113 58.7191 98.0719 58.1475 93.3643 57.4646C89.1329 56.8691 85.8222 56.2736 83.4406 55.6863C81.0589 55.099 79.1218 54.2731 77.6372 53.2251C76.1526 52.1612 75.4065 50.9227 75.4065 49.5255C75.4065 47.6837 76.7402 46.0164 79.3919 44.5399C82.0436 43.0713 86.2193 42.174 91.9195 41.8407V38.9355H99.6203V41.8412C108.226 42.27 113.799 44.2546 116.332 47.8272L105.725 49.6055C103.653 47.1604 100.461 45.9377 96.1272 45.9377C93.9519 45.9377 92.2053 46.2077 90.8955 46.7633C89.5775 47.3031 88.9188 47.97 88.9188 48.7481C88.9188 49.542 89.5539 50.1454 90.8241 50.5742C92.0864 50.9949 94.8095 51.5111 98.9695 52.1462C103.542 52.8291 107.131 53.4721 109.727 54.0833C112.331 54.6866 114.403 55.5283 115.959 56.5998C117.507 57.6716 118.284 58.9259 118.284 60.3549C118.284 62.562 116.681 64.3878 113.482 65.8564C110.282 67.325 105.662 68.1906 99.6203 68.4525V72.2151H91.9195V68.468C81.8452 68.0473 75.613 65.6417 73.2077 61.2752L85.116 60.005C86.2195 62.752 89.8714 64.1254 96.0716 64.1254C98.9689 64.1254 101.113 63.8317 102.478 63.2441C103.844 62.6565 104.526 61.9502 104.526 61.1167Z" fill="#283E78"/>
</svg>
