<svg width="50" height="50" viewBox="0 0 50 50" fill="none" xmlns="http://www.w3.org/2000/svg">
<circle cx="25.0782" cy="25.157" r="24.1639" fill="#48C95F"/>
<path d="M34.6554 15.567C32.2685 13.1884 29.0859 11.8669 25.7266 11.8669C18.7426 11.8669 13.0847 17.5052 13.0847 24.4649C13.0847 26.6673 13.7036 28.8697 14.7644 30.7198L12.9963 37.239L19.7151 35.4771C21.5716 36.4461 23.6049 36.9747 25.7266 36.9747C32.7105 36.9747 38.3684 31.3365 38.3684 24.3768C38.28 21.1172 37.0423 17.9457 34.6554 15.567ZM31.8265 28.9578C31.5613 29.6626 30.3236 30.3674 29.7048 30.4555C29.1743 30.5436 28.4671 30.5436 27.7599 30.3674C27.3178 30.1912 26.699 30.015 25.9918 29.6626C22.8092 28.3412 20.7759 25.1697 20.5991 24.9054C20.4223 24.7292 19.2731 23.2315 19.2731 21.6458C19.2731 20.06 20.0687 19.3552 20.3339 19.0028C20.5991 18.6504 20.9527 18.6504 21.2179 18.6504C21.3948 18.6504 21.66 18.6504 21.8368 18.6504C22.0136 18.6504 22.2788 18.5623 22.544 19.179C22.8092 19.7957 23.4281 21.3815 23.5165 21.4696C23.6049 21.6458 23.6049 21.822 23.5165 21.9981C23.4281 22.1743 23.3396 22.3505 23.1628 22.5267C22.986 22.7029 22.8092 22.9672 22.7208 23.0553C22.544 23.2315 22.3672 23.4077 22.544 23.672C22.7208 24.0244 23.3396 24.9935 24.3121 25.8744C25.5498 26.9316 26.5222 27.284 26.8758 27.4602C27.2294 27.6364 27.4062 27.5483 27.5831 27.3721C27.7599 27.1959 28.3787 26.4911 28.5555 26.1387C28.7323 25.7863 28.9975 25.8744 29.2627 25.9625C29.528 26.0506 31.1192 26.8435 31.3844 27.0197C31.7381 27.1959 31.9149 27.284 32.0033 27.3721C32.0917 27.6364 32.0917 28.2531 31.8265 28.9578Z" fill="#FBFBFB"/>
</svg>
