<svg width="196" height="196" viewBox="0 0 196 196" fill="none" xmlns="http://www.w3.org/2000/svg">
<rect width="196" height="196" fill="white"/>
<g clip-path="url(#clip0_804_840)">
<path d="M50.8377 30.7999C45.9897 30.7999 42.0005 34.7889 42.0005 39.637C42.0005 43.4444 44.475 46.702 47.8786 47.9388V149.271C44.4756 150.502 42.0005 153.743 42.0005 157.55C42.0005 162.398 45.9897 166.387 50.8377 166.387H145.163C150.011 166.387 154 162.398 154 157.55C154 153.734 151.515 150.484 148.099 149.259V47.9446C151.514 46.7141 154 43.4527 154 39.637C154 34.7889 150.011 30.7999 145.163 30.7999H50.8377ZM50.8377 36.7009H145.163C146.847 36.7009 148.099 37.9531 148.099 39.637C148.099 41.321 146.847 42.5961 145.163 42.5961H50.8377C49.1537 42.5961 47.8786 41.321 47.8786 39.637C47.8786 37.9531 49.1538 36.7009 50.8377 36.7009ZM53.7739 48.4916H68.0459C68.4266 57.4084 70.213 66.5292 73.095 74.6695C73.147 75.0534 73.2741 75.4232 73.4692 75.7579C73.495 75.8008 73.5218 75.8428 73.5498 75.8843C74.3854 78.1303 75.2793 80.3194 76.2729 82.3729C78.8327 87.6633 81.891 92.2525 85.4786 95.6258C86.5539 96.6362 87.6954 97.5234 88.8811 98.2973C87.6868 99.0913 86.5363 100.007 85.4556 101.043C81.8723 104.481 78.8293 109.141 76.2729 114.509C71.5469 124.434 68.5495 136.831 68.0459 148.718H53.7739L53.7739 48.4916ZM74.5112 48.4916L121.49 48.6028C121.114 56.1252 119.884 63.9506 117.771 70.9752C112.51 73.1792 105.889 72.1029 98.6223 70.7103C94.6808 69.9551 90.5488 69.118 86.4574 69.0119C83.5896 68.9305 80.7492 69.2614 78.0001 70.1978C76.0201 63.3412 74.8652 55.7782 74.5112 48.4991V48.4916ZM127.955 48.4916H142.204V148.718H127.955C127.451 136.794 124.439 124.365 119.682 114.423C117.118 109.065 114.048 104.42 110.459 100.997C109.392 99.9787 108.258 99.0805 107.08 98.2967C108.25 97.5335 109.374 96.6581 110.436 95.6658C114.029 92.3069 117.098 87.7616 119.665 82.4819C120.856 80.0308 121.924 77.4076 122.889 74.6866C123.251 74.1956 123.452 73.6042 123.464 72.994C126.016 65.2848 127.599 56.7993 127.955 48.4916ZM86.4689 74.9744C89.8453 75.0748 93.5672 75.7388 97.5111 76.4945C103.219 77.5886 109.372 78.8205 115.295 77.7955C114.991 78.5 114.701 79.2186 114.374 79.8913C112.036 84.7005 109.265 88.6922 106.412 91.3594C103.558 94.0267 100.743 95.3265 97.9659 95.3203C95.1888 95.314 92.3779 94.0007 89.5259 91.3191C86.6739 88.6374 83.9134 84.6253 81.581 79.8049C80.9629 78.5273 80.401 77.1769 79.8654 75.7922C81.8695 75.1338 84.0771 74.9021 86.4689 74.9744ZM97.9487 101.216C97.9546 101.216 97.9602 101.216 97.966 101.216C100.721 101.21 103.531 102.538 106.389 105.263C109.246 107.989 112.009 112.05 114.351 116.944C118.631 125.889 120.945 137.642 121.49 148.586L120.033 148.592C119.312 147.75 118.478 146.854 117.356 145.713C115.705 144.034 113.74 142.179 111.875 140.624C111.87 140.618 111.858 140.629 111.852 140.624C107.889 136.665 104.093 134.474 100.321 133.94C96.5434 133.403 93.0796 134.608 90.1997 136.421C84.6816 139.895 80.4077 145.477 76.1982 148.713L74.5114 148.718C75.0358 137.766 77.3149 126.008 81.5869 117.037C83.9227 112.131 86.6928 108.044 89.5491 105.304C92.3995 102.569 95.1986 101.227 97.9487 101.216ZM97.989 107.221C97.2112 107.224 96.4661 107.534 95.9162 108.084C95.3662 108.634 95.0559 109.379 95.0528 110.157V113.116C95.0559 113.894 95.3662 114.639 95.9162 115.189C96.4662 115.739 97.2112 116.049 97.989 116.052C98.7708 116.055 99.5217 115.747 100.077 115.197C100.632 114.646 100.945 113.898 100.948 113.116V110.157C100.947 109.77 100.869 109.386 100.719 109.029C100.57 108.672 100.352 108.348 100.077 108.076C99.8019 107.803 99.4761 107.587 99.1179 107.441C98.7597 107.294 98.3761 107.219 97.989 107.221ZM97.989 120.623C97.2073 120.626 96.4587 120.94 95.9081 121.495C95.3575 122.05 95.0498 122.801 95.0528 123.582V126.519C95.0513 126.906 95.1261 127.289 95.2728 127.647C95.4195 128.006 95.6354 128.332 95.908 128.606C96.1807 128.881 96.5048 129.099 96.8618 129.249C97.2189 129.398 97.6019 129.476 97.989 129.478C98.378 129.479 98.7635 129.404 99.1233 129.255C99.483 129.107 99.8098 128.889 100.085 128.614C100.36 128.339 100.578 128.013 100.726 127.653C100.874 127.293 100.95 126.908 100.948 126.519V123.582C100.95 123.193 100.874 122.808 100.726 122.448C100.578 122.088 100.36 121.762 100.085 121.487C99.8097 121.211 99.4829 120.994 99.1232 120.845C98.7635 120.697 98.378 120.622 97.989 120.623ZM97.9372 139.731C98.445 139.695 98.9587 139.722 99.4916 139.795C101.623 140.097 104.296 141.398 107.696 144.798C107.766 144.859 107.839 144.916 107.914 144.97C109.165 146.001 110.527 147.339 111.829 148.609H85.1735C87.9102 145.937 90.8976 142.971 93.3544 141.424C94.9609 140.412 96.4137 139.831 97.9372 139.731ZM50.8378 154.613H145.163C146.847 154.613 148.099 155.865 148.099 157.55C148.099 159.234 146.847 160.486 145.163 160.486H50.8377C49.1537 160.486 47.8785 159.234 47.8785 157.55C47.8785 155.865 49.1537 154.613 50.8378 154.613Z" fill="#283E78"/>
</g>
<defs>
<clipPath id="clip0_804_840">
<rect width="134.4" height="134.4" fill="white" transform="translate(30.8005 30.7999)"/>
</clipPath>
</defs>
</svg>
